<?xml version="1.0" encoding="UTF-8" standalone="no"?>
<svg
   xmlns:dc="http://purl.org/dc/elements/1.1/"
   xmlns:cc="http://creativecommons.org/ns#"
   xmlns:rdf="http://www.w3.org/1999/02/22-rdf-syntax-ns#"
   xmlns:svg="http://www.w3.org/2000/svg"
   xmlns="http://www.w3.org/2000/svg"
   xmlns:xlink="http://www.w3.org/1999/xlink"
   xmlns:sodipodi="http://sodipodi.sourceforge.net/DTD/sodipodi-0.dtd"
   xmlns:inkscape="http://www.inkscape.org/namespaces/inkscape"
   id="logo-francejs.fw-page%201"
   viewBox="0 0 165 196"
   version="1.1"
   xml:space="preserve"
   x="0px"
   y="0px"
   width="100%"
   height="100%"
   inkscape:version="0.48.4 r9939"
   sodipodi:docname="logo.svg"><metadata
     id="metadata58"><rdf:RDF><cc:Work
         rdf:about=""><dc:format>image/svg+xml</dc:format><dc:type
           rdf:resource="http://purl.org/dc/dcmitype/StillImage" /><dc:title /></cc:Work></rdf:RDF></metadata><sodipodi:namedview
     pagecolor="#ffffff"
     bordercolor="#666666"
     borderopacity="1"
     objecttolerance="10"
     gridtolerance="10"
     guidetolerance="10"
     inkscape:pageopacity="0"
     inkscape:pageshadow="2"
     inkscape:window-width="1600"
     inkscape:window-height="841"
     id="namedview56"
     showgrid="false"
     inkscape:zoom="1.2040816"
     inkscape:cx="-85.110341"
     inkscape:cy="96.33898"
     inkscape:window-x="0"
     inkscape:window-y="27"
     inkscape:window-maximized="1"
     inkscape:current-layer="logo-francejs.fw-page%201" /><defs
     id="defs3"><radialGradient
       id="fill1"
       cx="89.014845"
       cy="57.895399"
       r="89.277586"
       gradientTransform="scale(0.94398412,1.0593399)"
       fx="89.014845"
       fy="57.895399"
       gradientUnits="userSpaceOnUse"><stop
         stop-color="#faeb0f"
         stop-opacity="1"
         offset="0%"
         id="stop6" /><stop
         stop-color="#f1c309"
         stop-opacity="1"
         offset="100%"
         id="stop8" /></radialGradient><linearGradient
       id="stroke-gradient"
       x1="87.486128"
       y1="58.414272"
       x2="87.486128"
       y2="151.38816"
       gradientTransform="scale(0.94300664,1.0604379)"
       gradientUnits="userSpaceOnUse"><stop
         stop-color="#ffffff"
         stop-opacity="1"
         offset="0%"
         id="stop11" /><stop
         stop-color="#f1c309"
         stop-opacity="1"
         offset="100%"
         id="stop13" /></linearGradient><linearGradient
       id="gradient-gloss"
       x1="94.225094"
       y1="40.093819"
       x2="94.225094"
       y2="131.93643"
       gradientTransform="scale(0.94422405,1.0590707)"
       gradientUnits="userSpaceOnUse"><stop
         stop-color="#ffffff"
         stop-opacity="0.7"
         offset="0%"
         id="stop16" /><stop
         stop-color="#ffffff"
         stop-opacity="0"
         offset="100%"
         id="stop18" /></linearGradient><filter
       id="js-dropshadow"
       x="-100%"
       y="-100%"
       width="300%"
       height="300%"><!-- Ombre portée --><feOffset
         result="out"
         in="SourceGraphic"
         dx="0"
         dy="2"
         id="feOffset21" /><feColorMatrix
         result="out"
         in="out"
         type="matrix"
         values="0 0 0 0.549 0  0 0 0 0.4118 0  0 0 0 0 0  0 0 0 0.4 0"
         id="feColorMatrix23" /><feGaussianBlur
         result="out"
         in="out"
         stdDeviation="1"
         id="feGaussianBlur25" /><feBlend
         in="SourceGraphic"
         in2="out"
         mode="normal"
         result="js-dropshadow"
         id="feBlend27" /></filter><filter
       id="filter-blur"
       x="-100%"
       y="-100%"
       width="300%"
       height="300%"><!-- Flou gaussien... --><feGaussianBlur
         in="SourceGraphic"
         stdDeviation="5"
         result="Flou_gaussien___1"
         id="feGaussianBlur30" /></filter><linearGradient
       inkscape:collect="always"
       xlink:href="#stroke-gradient"
       id="linearGradient3046"
       gradientUnits="userSpaceOnUse"
       gradientTransform="scale(0.94300664,1.0604379)"
       x1="87.486128"
       y1="58.414272"
       x2="87.486128"
       y2="151.38816" /><linearGradient
       inkscape:collect="always"
       xlink:href="#gradient-gloss"
       id="linearGradient3049"
       gradientUnits="userSpaceOnUse"
       gradientTransform="scale(0.94422405,1.0590707)"
       x1="94.225094"
       y1="40.093819"
       x2="94.225094"
       y2="131.93643" /><radialGradient
       inkscape:collect="always"
       xlink:href="#fill1"
       id="radialGradient3052"
       gradientUnits="userSpaceOnUse"
       gradientTransform="scale(0.94398412,1.0593399)"
       cx="89.014845"
       cy="57.895399"
       fx="89.014845"
       fy="57.895399"
       r="89.277586" /><linearGradient
       inkscape:collect="always"
       xlink:href="#stroke-gradient"
       id="linearGradient3017"
       gradientUnits="userSpaceOnUse"
       gradientTransform="scale(0.94300664,1.0604379)"
       x1="87.486128"
       y1="58.414272"
       x2="87.486128"
       y2="151.38816" /><linearGradient
       inkscape:collect="always"
       xlink:href="#gradient-gloss"
       id="linearGradient3020"
       gradientUnits="userSpaceOnUse"
       gradientTransform="scale(0.94422405,1.0590707)"
       x1="94.225094"
       y1="40.093819"
       x2="94.225094"
       y2="131.93643" /><radialGradient
       inkscape:collect="always"
       xlink:href="#fill1"
       id="radialGradient3023"
       gradientUnits="userSpaceOnUse"
       gradientTransform="scale(0.94398412,1.0593399)"
       cx="89.014845"
       cy="57.895399"
       fx="89.014845"
       fy="57.895399"
       r="89.277586" /></defs><g
     id="g3027"><path
       id="fond"
       d="M 159.661,57.4845 C 162.0574,56.1123 164,57.2385 164,60 l 0,83.3333 c 0,2.7615 -1.9426,6.1124 -4.339,7.4845 l -72.822,41.6977 c -2.3964,1.3722 -6.2816,1.3722 -8.678,0 L 5.339,150.8178 C 2.9426,149.4457 1,146.0948 1,143.3333 L 1,60 c 0,-2.7615 1.9426,-3.8877 4.339,-2.5155 l 72.822,41.6977 c 2.3964,1.3721 6.2816,1.3721 8.678,0 l 72.822,-41.6977 z"
       inkscape:connector-curvature="0"
       style="fill:#dcdccb;stroke:#acac9d;stroke-width:1" /><path
       id="ombre"
       d="m 83.5,88.565 46.725,18.4675 0,36.935 -46.725,18.4675 -46.725,-18.4675 0,-36.935 L 83.5,88.565 z"
       inkscape:connector-curvature="0"
       style="fill:#8a8a7b;filter:url(#filter-blur)" /><path
       id="hexagone"
       d="m 78.1677,43.4962 c 2.3927,-1.3786 6.2719,-1.3786 8.6646,0 l 43.8354,25.2576 C 133.0604,70.1324 135,73.4885 135,76.25 l 0,50.5 c 0,2.7615 -1.9396,6.1176 -4.3323,7.4962 l -43.8354,25.2576 c -2.3927,1.3786 -6.2719,1.3786 -8.6646,0 L 34.3323,134.2462 C 31.9396,132.8676 30,129.5115 30,126.75 l 0,-50.5 c 0,-2.7615 1.9396,-6.1176 4.3323,-7.4962 L 78.1677,43.4962 z"
       style="fill:url(#radialGradient3023);stroke:#c5a807;stroke-width:2"
       inkscape:connector-curvature="0" /><path
       id="glossy"
       d="m 86.8324,43.496 c -2.3927,-1.3785 -6.272,-1.3784 -8.6647,2e-4 L 34.3323,68.7538 C 31.9396,70.1324 30,73.4885 30,76.25 l 0,50.5 c 0,2.7615 1.9396,6.1176 4.3323,7.4962 L 43.85,139.73 C 58.6701,105.9756 84.4664,78.131 116.72,60.715 L 86.8324,43.496 z"
       style="opacity:0.7;fill:url(#linearGradient3020)"
       inkscape:connector-curvature="0" /><path
       id="stroke_light"
       d="m 31.5,77.115 c 0,-2.7615 1.9396,-6.1176 4.3323,-7.4962 L 78.1677,45.2262 c 2.3927,-1.3786 6.2719,-1.3786 8.6646,0 l 42.3354,24.3926 c 2.3927,1.3786 4.3323,4.7347 4.3323,7.4962 l 0,48.77 c 0,2.7615 -1.9396,6.1176 -4.3323,7.4962 l -42.3354,24.3926 c -2.3927,1.3786 -6.2719,1.3786 -8.6646,0 L 35.8323,133.3812 C 33.4396,132.0026 31.5,128.6465 31.5,125.885 l 0,-48.77 z M 86.8323,43.4962 c -2.3927,-1.3786 -6.2719,-1.3786 -8.6646,0 L 34.3323,68.7538 C 31.9396,70.1324 30,73.4885 30,76.25 l 0,50.5 c 0,2.7615 1.9396,6.1176 4.3323,7.4962 l 43.8354,25.2576 c 2.3927,1.3786 6.2719,1.3786 8.6646,0 l 43.8354,-25.2576 C 133.0604,132.8676 135,129.5115 135,126.75 l 0,-50.5 c 0,-2.7615 -1.9396,-6.1176 -4.3323,-7.4962 L 86.8323,43.4962 z"
       style="fill:url(#linearGradient3017)"
       inkscape:connector-curvature="0" /><g
       id="JS"
       style="filter:url(#js-dropshadow)"><path
         d="m 68.2969,121.9219 c 1.8437,-0.7188 3.4375,-1.7969 4.7656,-3.2031 1.3281,-1.4063 2.3125,-3.0782 2.9688,-5.0157 C 76.6719,111.7656 77,109.4688 77,106.8125 L 77,80 l -11,0 0,27.0156 c 0,2 -0.4375,3.5 -1.2969,4.5 -0.8593,1 -2.0312,1.4844 -3.5,1.4844 -1.2812,0 -2.4375,-0.3281 -3.4531,-1.0156 -1.0312,-0.6719 -2.0625,-1.625 -3.0937,-2.875 l -7.5,6.9844 c 0.7187,0.9843 1.5468,1.8906 2.5156,2.7343 0.9687,0.8438 2.0469,1.5625 3.25,2.1875 1.1875,0.625 2.5312,1.1094 4.0156,1.4688 1.4688,0.3281 3.1406,0.5156 4.9844,0.5156 2.3906,0 4.5156,-0.375 6.375,-1.0781 l 0,0 z"
         id="path39"
         inkscape:connector-curvature="0"
         style="fill:#ffffff" /><path
         d="m 107.7813,122.0625 c 2.1093,-0.625 3.9218,-1.5312 5.4375,-2.7187 1.5,-1.1875 2.6718,-2.625 3.5156,-4.3125 0.8437,-1.6875 1.2656,-3.625 1.2656,-5.7969 l 0,-0.125 c 0,-1.9688 -0.3594,-3.6563 -1.0469,-5.0938 -0.6875,-1.4375 -1.6875,-2.6562 -2.9843,-3.6562 -1.3125,-1 -2.8907,-1.8594 -4.75,-2.5625 -1.875,-0.7031 -3.9532,-1.3281 -6.25,-1.8594 -1.3907,-0.3125 -2.5313,-0.6094 -3.4375,-0.9219 -0.9063,-0.2968 -1.6094,-0.5937 -2.125,-0.9062 -0.5157,-0.2969 -0.875,-0.625 -1.0938,-1 C 96.0938,92.75 96,92.3281 96,91.8438 l 0,-0.125 c 0,-0.7657 0.3438,-1.4063 1.0469,-1.9375 0.6875,-0.5157 1.75,-0.7813 3.1562,-0.7813 1.875,0 3.8125,0.3594 5.8438,1.0625 2.0156,0.7031 3.9844,1.7344 5.9062,3.0781 l 5.8282,-8.3593 C 115.5,82.875 112.9375,81.4375 110.125,80.4688 107.3125,79.5 104.0938,79 100.5,79 c -2.5312,0 -4.8125,0.3438 -6.8437,1 -2.0313,0.6719 -3.7813,1.6094 -5.2188,2.8125 -1.4531,1.2031 -2.5625,2.625 -3.3125,4.2813 C 84.375,88.75 84,90.5625 84,92.5313 l 0,0.1093 c 0,2.1875 0.3906,4 1.1719,5.4688 0.7812,1.4687 1.8594,2.7031 3.2344,3.6875 1.3593,1 2.9687,1.7969 4.8125,2.4219 1.8437,0.625 3.8281,1.2031 5.9843,1.7187 1.375,0.3281 2.5,0.6406 3.375,0.9375 0.8594,0.3125 1.5469,0.625 2.0625,0.9375 0.5157,0.3281 0.875,0.6563 1.0625,1 0.1875,0.3438 0.2969,0.7344 0.2969,1.1719 l 0,0.1094 c 0,0.9375 -0.4219,1.6562 -1.2344,2.1562 -0.8125,0.5 -2,0.75 -3.5625,0.75 -4.8906,0 -9.4375,-1.6719 -13.625,-5.0469 l -6.4687,7.8438 c 2.5937,2.4062 5.5781,4.2031 8.9531,5.4062 3.375,1.1875 6.9531,1.7969 10.7188,1.7969 2.5625,0 4.8906,-0.3125 7,-0.9375 l 0,0 z"
         id="path41"
         inkscape:connector-curvature="0"
         style="fill:#ffffff" /></g><text
       transform="scale(0.9208907,1.0859052)"
       sodipodi:linespacing="125%"
       id="text3062"
       y="26.798756"
       x="-1.6068704"
       style="font-size:33.71338272px;font-style:normal;font-variant:normal;font-weight:normal;font-stretch:normal;line-height:125%;letter-spacing:0px;word-spacing:0px;fill:#575748;fill-opacity:1;stroke:none;font-family:Droid Sans Mono;-inkscape-font-specification:Droid Sans Mono"
       xml:space="preserve"><tspan
         style="font-style:normal;font-variant:normal;font-weight:bold;font-stretch:normal;line-height:114.99999762%;fill:#575748;fill-opacity:1;font-family:Droid Sans Thai;-inkscape-font-specification:Droid Sans Thai Bold"
         y="26.798756"
         x="-1.6068704"
         id="tspan3064"
         sodipodi:role="line">CLERMONT</tspan></text>
</g></svg>